<svg xmlns="http://www.w3.org/2000/svg" width="281.13" height="563.808" viewBox="0 0 281.13 563.808">
  <g id="Group_9" data-name="Group 9" transform="translate(-1523.94 -1881)">
    <path id="Path_10" data-name="Path 10" d="M437.13,213.458h-3.1V128.593a49.117,49.117,0,0,0-49.118-49.117h-179.8A49.117,49.117,0,0,0,156,128.593V594.167a49.117,49.117,0,0,0,49.117,49.117h179.8a49.117,49.117,0,0,0,49.117-49.118v-320.3h3.1Z" transform="translate(1367.94 1801.524)" fill="#e6e6e6"/>
    <path id="Path_11" data-name="Path 11" d="M390.983,96.107H367.513a17.427,17.427,0,0,1-16.135,24.008h-103A17.427,17.427,0,0,1,232.24,96.107H210.32a36.68,36.68,0,0,0-36.68,36.68v464.89a36.68,36.68,0,0,0,36.68,36.68H390.983a36.68,36.68,0,0,0,36.68-36.68V132.788A36.68,36.68,0,0,0,390.983,96.107Z" transform="translate(1363.854 1797.671)" fill="#fff"/>
    <path id="Path_12" data-name="Path 12" d="M265.989,219.111H255.2a1.43,1.43,0,0,0-1.43,1.43v4.735a1.43,1.43,0,0,0,1.43,1.43h1.788V233.8H264.2v-7.094h1.788a1.43,1.43,0,0,0,1.43-1.43v-4.735a1.43,1.43,0,0,0-1.43-1.43Z" transform="translate(1345.29 1769.175)" fill="#e6e6e6"/>
    <path id="Path_13" data-name="Path 13" d="M273.8,264.625a55.456,55.456,0,0,1-9.648-32.88,1.17,1.17,0,0,0-.913-1.167v-2.046H251.846v2.017h-.157a1.169,1.169,0,0,0-1.167,1.17c0,.028,0,.057,0,.085a50.611,50.611,0,0,1-9.092,33.659,3.222,3.222,0,0,0-.583,1.952l1.246,38.533a3.336,3.336,0,0,0,3.307,3.219H271.17a3.337,3.337,0,0,0,3.309-3.276l.48-37.412A6.753,6.753,0,0,0,273.8,264.625Z" transform="translate(1348.284 1766.993)" fill="#e6e6e6"/>
    <path id="Path_14" data-name="Path 14" d="M270.968,292.166H248.539a2.3,2.3,0,0,0-2.276,2.653l3.389,22.031h19.462l4.117-21.956a2.3,2.3,0,0,0-2.263-2.727Z" transform="translate(1347.035 1752.251)" fill="#fff"/>
    <path id="Path_15" data-name="Path 15" d="M422.273,369.345H411.486a1.43,1.43,0,0,0-1.43,1.43v4.735a1.43,1.43,0,0,0,1.43,1.43h1.788v7.094h7.212V376.94h1.787a1.43,1.43,0,0,0,1.43-1.43v-4.735A1.43,1.43,0,0,0,422.273,369.345Z" transform="translate(1309.084 1734.371)" fill="#e6e6e6"/>
    <path id="Path_16" data-name="Path 16" d="M430.083,414.859a55.457,55.457,0,0,1-9.648-32.88,1.169,1.169,0,0,0-.913-1.167v-2.046H408.13v2.017h-.157a1.169,1.169,0,0,0-1.167,1.17q0,.043,0,.085a50.61,50.61,0,0,1-9.092,33.659,3.222,3.222,0,0,0-.583,1.952l1.246,38.533a3.336,3.336,0,0,0,3.307,3.219h25.768a3.337,3.337,0,0,0,3.309-3.276l.48-37.412A6.751,6.751,0,0,0,430.083,414.859Z" transform="translate(1312.078 1732.188)" fill="#e6e6e6"/>
    <path id="Path_17" data-name="Path 17" d="M427.252,442.4H404.824a2.3,2.3,0,0,0-2.276,2.653l3.389,22.031H425.4l4.117-21.956a2.3,2.3,0,0,0-2.263-2.727Z" transform="translate(1310.829 1717.446)" fill="#fff"/>
    <path id="Path_18" data-name="Path 18" d="M248.188,581.733h-5.117a.678.678,0,0,0-.678.678v2.246a.678.678,0,0,0,.678.678h.848V588.7h3.421v-3.365h.848a.678.678,0,0,0,.678-.678v-2.246A.678.678,0,0,0,248.188,581.733Z" transform="translate(1347.926 1685.167)" fill="#e6e6e6"/>
    <path id="Path_19" data-name="Path 19" d="M251.892,603.322a26.305,26.305,0,0,1-4.576-15.6.555.555,0,0,0-.433-.554v-.97h-5.4v.957H241.4a.555.555,0,0,0-.554.555c0,.013,0,.027,0,.04a24.007,24.007,0,0,1-4.313,15.966,1.528,1.528,0,0,0-.277.926l.591,18.278a1.582,1.582,0,0,0,1.569,1.527h12.223a1.583,1.583,0,0,0,1.57-1.554l.228-17.746A3.2,3.2,0,0,0,251.892,603.322Z" transform="translate(1349.346 1684.132)" fill="#e6e6e6"/>
    <rect id="Rectangle_2" data-name="Rectangle 2" width="11.663" height="5.831" transform="translate(1587.817 2294.173)" fill="#fff"/>
    <path id="Path_20" data-name="Path 20" d="M279.188,581.733h-5.117a.678.678,0,0,0-.678.678v2.246a.678.678,0,0,0,.678.678h.848V588.7h3.421v-3.365h.848a.678.678,0,0,0,.678-.678v-2.246A.678.678,0,0,0,279.188,581.733Z" transform="translate(1340.744 1685.167)" fill="#e6e6e6"/>
    <path id="Path_21" data-name="Path 21" d="M282.892,603.322a26.306,26.306,0,0,1-4.576-15.6.555.555,0,0,0-.433-.554v-.97h-5.4v.957H272.4a.555.555,0,0,0-.554.555c0,.013,0,.027,0,.04a24.007,24.007,0,0,1-4.313,15.966,1.528,1.528,0,0,0-.277.926l.591,18.278a1.582,1.582,0,0,0,1.569,1.527h12.223a1.583,1.583,0,0,0,1.57-1.554l.228-17.746A3.2,3.2,0,0,0,282.892,603.322Z" transform="translate(1342.164 1684.132)" fill="#e6e6e6"/>
    <rect id="Rectangle_3" data-name="Rectangle 3" width="11.663" height="5.831" transform="translate(1611.635 2294.173)" fill="#fff"/>
    <path id="Path_22" data-name="Path 22" d="M310.188,581.733h-5.117a.678.678,0,0,0-.678.678v2.246a.678.678,0,0,0,.678.678h.848V588.7h3.421v-3.365h.848a.678.678,0,0,0,.678-.678v-2.246A.678.678,0,0,0,310.188,581.733Z" transform="translate(1333.562 1685.167)" fill="#e6e6e6"/>
    <path id="Path_23" data-name="Path 23" d="M313.892,603.322a26.306,26.306,0,0,1-4.576-15.6.555.555,0,0,0-.433-.554v-.97h-5.4v.957H303.4a.554.554,0,0,0-.554.555c0,.013,0,.027,0,.04a24.007,24.007,0,0,1-4.313,15.966,1.528,1.528,0,0,0-.277.926l.591,18.278a1.582,1.582,0,0,0,1.569,1.527h12.223a1.583,1.583,0,0,0,1.57-1.554l.228-17.746A3.2,3.2,0,0,0,313.892,603.322Z" transform="translate(1334.983 1684.132)" fill="#e6e6e6"/>
    <rect id="Rectangle_4" data-name="Rectangle 4" width="11.663" height="5.831" transform="translate(1635.453 2294.173)" fill="#fff"/>
    <path id="Path_24" data-name="Path 24" d="M397.884,523.613H387.1a1.43,1.43,0,0,0-1.43,1.43v4.735a1.43,1.43,0,0,0,1.43,1.43h1.788V538.3H396.1v-7.094h1.788a1.43,1.43,0,0,0,1.43-1.43v-4.735A1.43,1.43,0,0,0,397.884,523.613Z" transform="translate(1314.734 1698.632)" fill="#e6e6e6"/>
    <path id="Path_25" data-name="Path 25" d="M405.694,569.127a55.456,55.456,0,0,1-9.648-32.88,1.17,1.17,0,0,0-.913-1.167v-2.046H383.741v2.017h-.157a1.169,1.169,0,0,0-1.167,1.171q0,.042,0,.085a50.611,50.611,0,0,1-9.092,33.659,3.222,3.222,0,0,0-.583,1.952l1.246,38.533a3.336,3.336,0,0,0,3.307,3.219h25.768a3.337,3.337,0,0,0,3.309-3.276l.48-37.412A6.752,6.752,0,0,0,405.694,569.127Z" transform="translate(1317.728 1696.449)" fill="#e6e6e6"/>
    <path id="Path_26" data-name="Path 26" d="M402.863,596.668H380.434a2.3,2.3,0,0,0-2.276,2.653l3.389,22.031h19.462l4.117-21.956a2.3,2.3,0,0,0-2.263-2.727Z" transform="translate(1316.479 1681.707)" fill="#fff"/>
    <path id="Path_27" data-name="Path 27" d="M389.844,314.244h-64.3c4.5-24.3,3.461-53.654,0-85.217h64.3C386.475,260.59,385.468,289.939,389.844,314.244Z" transform="translate(1328.662 1766.878)" fill="#e6e6e6"/>
    <circle id="Ellipse_1" data-name="Ellipse 1" cx="15.494" cy="15.494" r="15.494" transform="translate(1671.25 2020.695)" fill="#fff"/>
    <path id="Path_28" data-name="Path 28" d="M313.214,461.453h-64.3c4.5-24.3,3.461-53.654,0-85.217h64.3C309.845,407.8,308.838,437.148,313.214,461.453Z" transform="translate(1346.415 1732.774)" fill="#e6e6e6"/>
    <circle id="Ellipse_2" data-name="Ellipse 2" cx="15.494" cy="15.494" r="15.494" transform="translate(1612.373 2133.801)" fill="#fff"/>
    <path id="Path_29" data-name="Path 29" d="M437.233,321.3h-64.3c4.5-24.3,3.461-53.654,0-85.217h64.3C433.864,267.648,432.857,297,437.233,321.3Z" transform="translate(1317.684 1765.243)" fill="#e6e6e6"/>
    <circle id="Ellipse_3" data-name="Ellipse 3" cx="15.494" cy="15.494" r="15.494" transform="translate(1707.66 2026.118)" fill="#fff"/>
    <path id="Path_30" data-name="Path 30" d="M437.233,316.26h-64.3c4.5-24.3,3.461-53.654,0-85.217h64.3C433.864,262.606,432.857,291.955,437.233,316.26Z" transform="translate(1317.684 1766.411)" fill="#e6e6e6"/>
    <circle id="Ellipse_4" data-name="Ellipse 4" cx="15.494" cy="15.494" r="15.494" transform="translate(1707.66 2022.245)" fill="#fff"/>
    <path id="Path_31" data-name="Path 31" d="M437.233,321.3h-64.3c4.5-24.3,3.461-53.654,0-85.217h64.3C433.864,267.648,432.857,297,437.233,321.3Z" transform="translate(1317.684 1765.243)" fill="#e6e6e6"/>
    <circle id="Ellipse_5" data-name="Ellipse 5" cx="15.494" cy="15.494" r="15.494" transform="translate(1707.66 2026.118)" fill="#fff"/>
    <rect id="Rectangle_5" data-name="Rectangle 5" width="210.718" height="23.241" transform="translate(1558.918 2076.474)" fill="#e6e6e6"/>
    <rect id="Rectangle_6" data-name="Rectangle 6" width="210.718" height="23.241" transform="translate(1558.918 2191.903)" fill="#e6e6e6"/>
  </g>
</svg>
