<svg xmlns="http://www.w3.org/2000/svg" width="1119.453" height="717.276" viewBox="0 0 1119.453 717.276">
  <g id="Group_12" data-name="Group 12" transform="translate(-1920 -1279)">
    <rect id="Rectangle_13" data-name="Rectangle 13" width="1118.975" height="716.642" transform="translate(1920.478 1279.634)" fill="#e6e6e6"/>
    <rect id="Rectangle_14" data-name="Rectangle 14" width="1054.982" height="584.36" transform="translate(1952.475 1369.519)" fill="#fff"/>
    <path id="Path_85" data-name="Path 85" d="M0,0H1118.975V47.538H0Z" transform="translate(1920 1279)" fill="#4a4a4a"/>
    <circle id="Ellipse_6" data-name="Ellipse 6" cx="8.811" cy="8.811" r="8.811" transform="translate(1946.516 1294.493)" fill="#fff"/>
    <circle id="Ellipse_7" data-name="Ellipse 7" cx="8.811" cy="8.811" r="8.811" transform="translate(1979.959 1294.493)" fill="#fff"/>
    <circle id="Ellipse_8" data-name="Ellipse 8" cx="8.811" cy="8.811" r="8.811" transform="translate(2013.403 1294.493)" fill="#fff"/>
    <rect id="Rectangle_16" data-name="Rectangle 16" width="206.339" height="223.859" transform="translate(2082.278 1417.583)" fill="#e6e6e6"/>
    <rect id="Rectangle_17" data-name="Rectangle 17" width="206.339" height="223.859" transform="translate(2376.793 1417.583)" fill="#e6e6e6"/>
    <rect id="Rectangle_18" data-name="Rectangle 18" width="206.339" height="223.859" transform="translate(2671.309 1417.583)" fill="#e6e6e6"/>
    <rect id="Rectangle_19" data-name="Rectangle 19" width="206.339" height="223.859" transform="translate(2082.278 1681.961)" fill="#e6e6e6"/>
    <rect id="Rectangle_20" data-name="Rectangle 20" width="206.339" height="223.859" transform="translate(2376.793 1681.961)" fill="#e6e6e6"/>
    <rect id="Rectangle_21" data-name="Rectangle 21" width="206.339" height="223.859" transform="translate(2671.309 1681.961)" fill="#e6e6e6"/>
    <path id="Path_32" data-name="Path 32" d="M462.358,401.905l37.7-14.9,4.384,74.524s7.891,22.8,5.261,31.563c0,0,1.754,14.9-2.63,15.782s-16.658,2.63-17.535,1.753-.877-3.507-.877-3.507-8.768,6.137-9.644,13.151c0,0-36.824,11.4-37.7.877s18.412-19.289,18.412-19.289l14.9-22.8Z" transform="translate(1964.308 1337.589)" fill="#fff"/>
    <path id="Path_33" data-name="Path 33" d="M508.328,401.905l37.7-14.9,4.384,74.524s7.891,22.8,5.261,31.563c0,0,1.753,14.9-2.63,15.782s-16.658,2.63-17.535,1.753-.877-3.507-.877-3.507-8.768,6.137-9.644,13.151c0,0-36.824,11.4-37.7.877S505.7,501.855,505.7,501.855l14.9-22.8Z" transform="translate(1998.122 1337.589)" fill="#fff"/>
    <path id="Path_34" data-name="Path 34" d="M533.294,231.042s-8.028,22.43,1.273,32.545l-7.754,26.646s27.551,82.652,19.679,94.2c0,0-29.387,14.694-88.162-5.248l23.877-92.622-3.411-39.1L483.52,229.1l10.5-1.05s-6.3,23.615,5.248,27.288,22.808-26.7,22.808-26.7Z" transform="translate(1976.844 1220.666)" fill="#3f3d56"/>
    <path id="Path_35" data-name="Path 35" d="M287.921,376.435l10.13,4.144L346.4,317.035l15.2,74.6,10.13-1.842c6.5-64.311,11.8-129.909,5.3-160.934l-37.528-1.612-17.037,54.335-8.288,36.837Z" transform="translate(1851.494 1220.075)" fill="#fff"/>
    <path id="Path_36" data-name="Path 36" d="M647.762,227.875s-13.825,19.221-13.151,26.976,9.442,134.207,9.442,134.207l20.569,1.012-6.07-91.045,5.058-24.616,12.477,114.649,25.29.674L678.785,241.026,674.4,227.875Z" transform="translate(2106.496 1220.539)" fill="#fff"/>
    <path id="Path_37" data-name="Path 37" d="M742,413.6c-3.671-4.405-9.981-6.787-16.041-8.074.182-.551-18.429-4.395-18.74-3.6l-7.014-5.587-21.547,11.19-12.11-8.243-5.625,2c.229-.992-17.462,2.072-17.462,2.072-3.379.122-7.7.333-12.527.7-16.92,1.3-18.222,45.121-18.222,45.121a69.163,69.163,0,0,1,24.495-5.128l4.573,52.419c23.522-2.018,48.192.33,73.755,6.074l11.99-41.2,27.924-10.859S750.673,424.01,742,413.6Z" transform="translate(2090.402 1344.455)" fill="#3f3d56"/>
    <path id="Path_38" data-name="Path 38" d="M387.091,397.93c-3.025-3.63-8.224-5.592-13.217-6.653.15-.454-15.185-3.621-15.441-2.968l-5.779-4.6-17.754,9.22-9.978-6.792-4.635,1.645c.189-.817-14.388,1.707-14.388,1.707-2.784.1-6.341.274-10.322.581-13.942,1.072-15.014,37.178-15.014,37.178a56.993,56.993,0,0,1,20.183-4.226l3.768,105.722c19.381-1.662,39.708.272,60.771,5l9.879-96.481,23.009-8.948S394.24,406.51,387.091,397.93Z" transform="translate(1846.08 1335.166)" fill="#fff"/>
  </g>
</svg>
