<svg xmlns="http://www.w3.org/2000/svg" width="471" height="564" viewBox="0 0 471 564">
  <g id="Group_11" data-name="Group 11" transform="translate(-3084.693 -1633)">
    <circle id="Ellipse_12" data-name="Ellipse 12" cx="8" cy="8" r="8" transform="translate(3100.693 1647)" fill="#3f3d56"/>
    <circle id="Ellipse_13" data-name="Ellipse 13" cx="8" cy="8" r="8" transform="translate(3125.693 1647)" fill="#3f3d56"/>
    <circle id="Ellipse_14" data-name="Ellipse 14" cx="8" cy="8" r="8" transform="translate(3150.693 1647)" fill="#3f3d56"/>
    <g id="Group_10" data-name="Group 10">
      <path id="Path_61" data-name="Path 61" d="M1006.846,686h-437a17.019,17.019,0,0,1-17-17V139a17.019,17.019,0,0,1,17-17h437a17.019,17.019,0,0,1,17,17V669a17.019,17.019,0,0,1-17,17Zm-437-562a15.017,15.017,0,0,0-15,15V669a15.017,15.017,0,0,0,15,15h437a15.017,15.017,0,0,0,15-15V139a15.017,15.017,0,0,0-15-15Z" transform="translate(2531.846 1511)" fill="#3f3d56"/>
      <path id="Path_83" data-name="Path 83" d="M0,0H469V2H0Z" transform="translate(3085.693 1674.59)" fill="#3f3d56"/>
      <path id="Path_62" data-name="Path 62" d="M939.106,243h-312a13,13,0,1,1,0-26h312a13,13,0,0,1,0,26Zm-312-24a11,11,0,0,0,0,22h312a11,11,0,1,0,0-22Z" transform="translate(2531.846 1511)" fill="#3f3d56"/>
      <path id="Path_63" data-name="Path 63" d="M743.846,426h-123a17.019,17.019,0,0,1-17-17V308a17.019,17.019,0,0,1,17-17h123a17.019,17.019,0,0,1,17,17V409a17.019,17.019,0,0,1-17,17Zm-123-133a15.017,15.017,0,0,0-15,15V409a15.017,15.017,0,0,0,15,15h123a15.017,15.017,0,0,0,15-15V308a15.017,15.017,0,0,0-15-15Z" transform="translate(2531.846 1511)" fill="#3f3d56"/>
      <rect id="Rectangle_29" data-name="Rectangle 29" width="155" height="133" rx="16" transform="translate(3348.693 1807)" fill="#f2f2f2"/>
      <path id="Path_64" data-name="Path 64" d="M743.846,614h-123a17.019,17.019,0,0,1-17-17V496a17.019,17.019,0,0,1,17-17h123a17.019,17.019,0,0,1,17,17V597a17.019,17.019,0,0,1-17,17Zm-123-133a15.017,15.017,0,0,0-15,15V597a15.017,15.017,0,0,0,15,15h123a15.017,15.017,0,0,0,15-15V496a15.017,15.017,0,0,0-15-15Z" transform="translate(2531.846 1511)" fill="#3f3d56"/>
      <rect id="Rectangle_30" data-name="Rectangle 30" width="155" height="133" rx="16" transform="translate(3348.693 1995)" fill="#f2f2f2"/>
      <path id="Path_65" data-name="Path 65" d="M651.738,401.573h-.067l-13.99-.518a1.808,1.808,0,0,1-1.743-1.613c-.963-8.591-4.926-52.371,11.675-70.567a23.747,23.747,0,0,1,18.788-7.892.786.786,0,0,0,.721-.376l3.387-5.322a1.836,1.836,0,0,1,1.753-.831c2.715.328,16.556,1.877,22.377.192a1.822,1.822,0,0,1,1.923.592l4.448,5.436a.779.779,0,0,0,.649.3c2.262-.045,10.194.393,17.135,8.157,7.517,8.407,15.274,27.376,9.543,70a1.833,1.833,0,0,1-1.809,1.584H715.51a1.832,1.832,0,0,1-1.8-1.561l-3.6-24.836a.822.822,0,0,0-1.635.1l-.248,11.661a1.826,1.826,0,0,1-1.083,1.627c-3.928,1.727-24.683,9.827-47.622-.318a1.838,1.838,0,0,1-1.083-1.594l-.451-10.595a.822.822,0,0,0-1.638-.057l-2.8,24.817A1.831,1.831,0,0,1,651.738,401.573Z" transform="translate(2531.846 1511)"/>
      <path id="Path_66" data-name="Path 66" d="M709.612,584.539h-.01l-54.821-.347a1.637,1.637,0,0,1-1.613-1.444l-5.515-46.873a1.262,1.262,0,0,0-1.218-1.122c-4.352-.142-14.707-1.134-16.852-7.263-1.911-5.459,3.316-13.51,15.535-23.931a1.637,1.637,0,0,1,2.636.786l6.343,21.885a1.28,1.28,0,0,0,1.213.918l51.979.349a1.265,1.265,0,0,0,1.222-.891l7.058-22.458a1.634,1.634,0,0,1,2.551-.81c4.816,3.678,20.332,16.307,17.778,24.384-1.338,4.23-7.37,6.588-17.93,7.008a1.266,1.266,0,0,0-1.214,1.122l-5.517,47.242a1.633,1.633,0,0,1-1.624,1.446Z" transform="translate(2531.846 1511)"/>
      <path id="Path_67" data-name="Path 67" d="M949.846,387.153a115.565,115.565,0,0,0-47.505,21.039,8.811,8.811,0,0,0-3.788-4.5,13.3,13.3,0,0,0-3.844-1.615c-1.236-.315-2.423.436-3.513,1.518a19.891,19.891,0,0,0-3.125,4.628c-18.826-12.922-47.384-21.168-47.384-21.168v-2.584a14.266,14.266,0,0,1,.186-1.817c.1-.695.218-1.308.371-2.059,2.423-12.325,12-40.487,12-40.487h10.83l21,4.361,23.623-1.446,23.793-4.951,3.085-.646c5.145,4.038,10.984,32.305,13.278,44.339.291,1.526.517,2.786.686,3.715C949.741,386.531,949.846,387.153,949.846,387.153Z" transform="translate(2531.846 1511)" fill="#fff"/>
      <path id="Path_68" data-name="Path 68" d="M885.223,511.219h0s-5.031,1.258-12.832,22.389-10.566,48.434-10.566,48.434-4.387,7.429,14.339,7.926c0,0-1.506,4.906,9.059,4.153s9.045-.746,9.045-.746,6.793-4.277,9.813-3.524,4.906,1.009,8.175,3.773,13.717,1.638,13.841-.5a19.733,19.733,0,0,0,0-3.151s15.976,1.009,12.957-10.566-5.535-30.571-5.535-30.571-8.175-37.108-17.49-37.612S885.223,511.219,885.223,511.219Z" transform="translate(2531.846 1511)" fill="#fff"/>
    </g>
  </g>
</svg>
