<svg xmlns="http://www.w3.org/2000/svg" width="1706.753" height="717.276" viewBox="0 0 1706.753 717.276">
  <g id="Group_7" data-name="Group 7" transform="translate(-1789.94 -1575)">
    <g id="Group_6" data-name="Group 6" transform="translate(149 2432)">
      <rect id="Rectangle_13" data-name="Rectangle 13" width="1118.975" height="716.642" transform="translate(1850.478 -856.366)" fill="#e6e6e6"/>
      <rect id="Rectangle_14" data-name="Rectangle 14" width="1054.982" height="584.36" transform="translate(1882.475 -766.481)" fill="#fff"/>
      <rect id="Rectangle_15" data-name="Rectangle 15" width="1118.975" height="47.538" transform="translate(1850 -857)" fill="#cbbcbc"/>
      <circle id="Ellipse_6" data-name="Ellipse 6" cx="8.811" cy="8.811" r="8.811" transform="translate(1876.516 -841.507)" fill="#fff"/>
      <circle id="Ellipse_7" data-name="Ellipse 7" cx="8.811" cy="8.811" r="8.811" transform="translate(1909.959 -841.507)" fill="#fff"/>
      <circle id="Ellipse_8" data-name="Ellipse 8" cx="8.811" cy="8.811" r="8.811" transform="translate(1943.403 -841.507)" fill="#fff"/>
      <rect id="Rectangle_16" data-name="Rectangle 16" width="206.339" height="223.859" transform="translate(2012.278 -718.418)" fill="#e6e6e6"/>
      <rect id="Rectangle_17" data-name="Rectangle 17" width="206.339" height="223.859" transform="translate(2306.793 -718.418)" fill="#e6e6e6"/>
      <rect id="Rectangle_18" data-name="Rectangle 18" width="206.339" height="223.859" transform="translate(2601.309 -718.418)" fill="#e6e6e6"/>
      <rect id="Rectangle_19" data-name="Rectangle 19" width="206.339" height="223.859" transform="translate(2012.278 -454.039)" fill="#e6e6e6"/>
      <rect id="Rectangle_20" data-name="Rectangle 20" width="206.339" height="223.859" transform="translate(2306.793 -454.039)" fill="#e6e6e6"/>
      <rect id="Rectangle_21" data-name="Rectangle 21" width="206.339" height="223.859" transform="translate(2601.309 -454.039)" fill="#e6e6e6"/>
      <path id="Path_32" data-name="Path 32" d="M462.358,401.905l37.7-14.9,4.384,74.524s7.891,22.8,5.261,31.563c0,0,1.754,14.9-2.63,15.782s-16.658,2.63-17.535,1.753-.877-3.507-.877-3.507-8.768,6.137-9.644,13.151c0,0-36.824,11.4-37.7.877s18.412-19.289,18.412-19.289l14.9-22.8Z" transform="translate(1894.307 -798.411)" fill="#fff"/>
      <path id="Path_33" data-name="Path 33" d="M508.328,401.905l37.7-14.9,4.384,74.524s7.891,22.8,5.261,31.563c0,0,1.753,14.9-2.63,15.782s-16.658,2.63-17.535,1.753-.877-3.507-.877-3.507-8.768,6.137-9.644,13.151c0,0-36.824,11.4-37.7.877S505.7,501.855,505.7,501.855l14.9-22.8Z" transform="translate(1928.122 -798.411)" fill="#fff"/>
      <path id="Path_34" data-name="Path 34" d="M533.294,231.042s-8.028,22.43,1.273,32.545l-7.754,26.646s27.551,82.652,19.679,94.2c0,0-29.387,14.694-88.162-5.248l23.877-92.622-3.411-39.1L483.52,229.1l10.5-1.05s-6.3,23.615,5.248,27.288,22.808-26.7,22.808-26.7Z" transform="translate(1906.844 -915.334)" fill="#3f3d56"/>
      <path id="Path_35" data-name="Path 35" d="M287.921,376.435l10.13,4.144L346.4,317.035l15.2,74.6,10.13-1.842c6.5-64.311,11.8-129.909,5.3-160.934l-37.528-1.612-17.037,54.335-8.288,36.837Z" transform="translate(1781.494 -915.925)" fill="#fff"/>
      <path id="Path_36" data-name="Path 36" d="M647.762,227.875s-13.825,19.221-13.151,26.976,9.442,134.207,9.442,134.207l20.569,1.012-6.07-91.045,5.058-24.616,12.477,114.649,25.29.674L678.785,241.026,674.4,227.875Z" transform="translate(2036.496 -915.461)" fill="#fff"/>
      <path id="Path_37" data-name="Path 37" d="M742,413.6c-3.671-4.405-9.981-6.787-16.041-8.074.182-.551-18.429-4.395-18.74-3.6l-7.014-5.587-21.547,11.19-12.11-8.243-5.625,2c.229-.992-17.462,2.072-17.462,2.072-3.379.122-7.7.333-12.527.7-16.92,1.3-18.222,45.121-18.222,45.121a69.163,69.163,0,0,1,24.495-5.128l4.573,52.419c23.522-2.018,48.192.33,73.755,6.074l11.99-41.2,27.924-10.859S750.673,424.01,742,413.6Z" transform="translate(2020.402 -791.545)" fill="#3f3d56"/>
      <path id="Path_38" data-name="Path 38" d="M387.091,397.93c-3.025-3.63-8.224-5.592-13.217-6.653.15-.454-15.185-3.621-15.441-2.968l-5.779-4.6-17.754,9.22-9.978-6.792-4.635,1.645c.189-.817-14.388,1.707-14.388,1.707-2.784.1-6.341.274-10.322.581-13.942,1.072-15.014,37.178-15.014,37.178a56.993,56.993,0,0,1,20.183-4.226l3.768,105.722c19.381-1.662,39.708.272,60.771,5l9.879-96.481,23.009-8.948S394.24,406.51,387.091,397.93Z" transform="translate(1776.08 -800.834)" fill="#fff"/>
    </g>
    <g id="Group_4" data-name="Group 4" transform="translate(156.94 558)">
      <path id="Path_10" data-name="Path 10" d="M437.13,213.458h-3.1V128.593a49.117,49.117,0,0,0-49.118-49.117h-179.8A49.117,49.117,0,0,0,156,128.593V594.167a49.117,49.117,0,0,0,49.117,49.117h179.8a49.117,49.117,0,0,0,49.117-49.118v-320.3h3.1Z" transform="translate(1477 1048.524)" fill="#e6e6e6"/>
      <path id="Path_11" data-name="Path 11" d="M390.983,96.107H367.513a17.427,17.427,0,0,1-16.135,24.008h-103A17.427,17.427,0,0,1,232.24,96.107H210.32a36.68,36.68,0,0,0-36.68,36.68v464.89a36.68,36.68,0,0,0,36.68,36.68H390.983a36.68,36.68,0,0,0,36.68-36.68V132.788A36.68,36.68,0,0,0,390.983,96.107Z" transform="translate(1472.914 1044.671)" fill="#fff"/>
      <path id="Path_12" data-name="Path 12" d="M265.989,219.111H255.2a1.43,1.43,0,0,0-1.43,1.43v4.735a1.43,1.43,0,0,0,1.43,1.43h1.788V233.8H264.2v-7.094h1.788a1.43,1.43,0,0,0,1.43-1.43v-4.735a1.43,1.43,0,0,0-1.43-1.43Z" transform="translate(1454.349 1016.175)" fill="#e6e6e6"/>
      <path id="Path_13" data-name="Path 13" d="M273.8,264.625a55.456,55.456,0,0,1-9.648-32.88,1.17,1.17,0,0,0-.913-1.167v-2.046H251.846v2.017h-.157a1.169,1.169,0,0,0-1.167,1.17c0,.028,0,.057,0,.085a50.611,50.611,0,0,1-9.092,33.659,3.222,3.222,0,0,0-.583,1.952l1.246,38.533a3.336,3.336,0,0,0,3.307,3.219H271.17a3.337,3.337,0,0,0,3.309-3.276l.48-37.412A6.753,6.753,0,0,0,273.8,264.625Z" transform="translate(1457.343 1013.993)" fill="#e6e6e6"/>
      <path id="Path_14" data-name="Path 14" d="M270.968,292.166H248.539a2.3,2.3,0,0,0-2.276,2.653l3.389,22.031h19.462l4.117-21.956a2.3,2.3,0,0,0-2.263-2.727Z" transform="translate(1456.095 999.251)" fill="#fff"/>
      <path id="Path_15" data-name="Path 15" d="M422.273,369.345H411.486a1.43,1.43,0,0,0-1.43,1.43v4.735a1.43,1.43,0,0,0,1.43,1.43h1.788v7.094h7.212V376.94h1.787a1.43,1.43,0,0,0,1.43-1.43v-4.735A1.43,1.43,0,0,0,422.273,369.345Z" transform="translate(1418.143 981.371)" fill="#e6e6e6"/>
      <path id="Path_16" data-name="Path 16" d="M430.083,414.859a55.457,55.457,0,0,1-9.648-32.88,1.169,1.169,0,0,0-.913-1.167v-2.046H408.13v2.017h-.157a1.169,1.169,0,0,0-1.167,1.17q0,.043,0,.085a50.61,50.61,0,0,1-9.092,33.659,3.222,3.222,0,0,0-.583,1.952l1.246,38.533a3.336,3.336,0,0,0,3.307,3.219h25.768a3.337,3.337,0,0,0,3.309-3.276l.48-37.412A6.751,6.751,0,0,0,430.083,414.859Z" transform="translate(1421.137 979.188)" fill="#e6e6e6"/>
      <path id="Path_17" data-name="Path 17" d="M427.252,442.4H404.824a2.3,2.3,0,0,0-2.276,2.653l3.389,22.031H425.4l4.117-21.956a2.3,2.3,0,0,0-2.263-2.727Z" transform="translate(1419.889 964.446)" fill="#fff"/>
      <path id="Path_18" data-name="Path 18" d="M248.188,581.733h-5.117a.678.678,0,0,0-.678.678v2.246a.678.678,0,0,0,.678.678h.848V588.7h3.421v-3.365h.848a.678.678,0,0,0,.678-.678v-2.246A.678.678,0,0,0,248.188,581.733Z" transform="translate(1456.986 932.167)" fill="#e6e6e6"/>
      <path id="Path_19" data-name="Path 19" d="M251.892,603.322a26.305,26.305,0,0,1-4.576-15.6.555.555,0,0,0-.433-.554v-.97h-5.4v.957H241.4a.555.555,0,0,0-.554.555c0,.013,0,.027,0,.04a24.007,24.007,0,0,1-4.313,15.966,1.528,1.528,0,0,0-.277.926l.591,18.278a1.582,1.582,0,0,0,1.569,1.527h12.223a1.583,1.583,0,0,0,1.57-1.554l.228-17.746A3.2,3.2,0,0,0,251.892,603.322Z" transform="translate(1458.406 931.132)" fill="#e6e6e6"/>
      <rect id="Rectangle_2" data-name="Rectangle 2" width="11.663" height="5.831" transform="translate(1696.876 1541.173)" fill="#fff"/>
      <path id="Path_20" data-name="Path 20" d="M279.188,581.733h-5.117a.678.678,0,0,0-.678.678v2.246a.678.678,0,0,0,.678.678h.848V588.7h3.421v-3.365h.848a.678.678,0,0,0,.678-.678v-2.246A.678.678,0,0,0,279.188,581.733Z" transform="translate(1449.804 932.167)" fill="#e6e6e6"/>
      <path id="Path_21" data-name="Path 21" d="M282.892,603.322a26.306,26.306,0,0,1-4.576-15.6.555.555,0,0,0-.433-.554v-.97h-5.4v.957H272.4a.555.555,0,0,0-.554.555c0,.013,0,.027,0,.04a24.007,24.007,0,0,1-4.313,15.966,1.528,1.528,0,0,0-.277.926l.591,18.278a1.582,1.582,0,0,0,1.569,1.527h12.223a1.583,1.583,0,0,0,1.57-1.554l.228-17.746A3.2,3.2,0,0,0,282.892,603.322Z" transform="translate(1451.224 931.132)" fill="#e6e6e6"/>
      <rect id="Rectangle_3" data-name="Rectangle 3" width="11.663" height="5.831" transform="translate(1720.695 1541.173)" fill="#fff"/>
      <path id="Path_22" data-name="Path 22" d="M310.188,581.733h-5.117a.678.678,0,0,0-.678.678v2.246a.678.678,0,0,0,.678.678h.848V588.7h3.421v-3.365h.848a.678.678,0,0,0,.678-.678v-2.246A.678.678,0,0,0,310.188,581.733Z" transform="translate(1442.622 932.167)" fill="#e6e6e6"/>
      <path id="Path_23" data-name="Path 23" d="M313.892,603.322a26.306,26.306,0,0,1-4.576-15.6.555.555,0,0,0-.433-.554v-.97h-5.4v.957H303.4a.554.554,0,0,0-.554.555c0,.013,0,.027,0,.04a24.007,24.007,0,0,1-4.313,15.966,1.528,1.528,0,0,0-.277.926l.591,18.278a1.582,1.582,0,0,0,1.569,1.527h12.223a1.583,1.583,0,0,0,1.57-1.554l.228-17.746A3.2,3.2,0,0,0,313.892,603.322Z" transform="translate(1444.042 931.132)" fill="#e6e6e6"/>
      <rect id="Rectangle_4" data-name="Rectangle 4" width="11.663" height="5.831" transform="translate(1744.513 1541.173)" fill="#fff"/>
      <path id="Path_24" data-name="Path 24" d="M397.884,523.613H387.1a1.43,1.43,0,0,0-1.43,1.43v4.735a1.43,1.43,0,0,0,1.43,1.43h1.788V538.3H396.1v-7.094h1.788a1.43,1.43,0,0,0,1.43-1.43v-4.735A1.43,1.43,0,0,0,397.884,523.613Z" transform="translate(1423.794 945.632)" fill="#e6e6e6"/>
      <path id="Path_25" data-name="Path 25" d="M405.694,569.127a55.456,55.456,0,0,1-9.648-32.88,1.17,1.17,0,0,0-.913-1.167v-2.046H383.741v2.017h-.157a1.169,1.169,0,0,0-1.167,1.171q0,.042,0,.085a50.611,50.611,0,0,1-9.092,33.659,3.222,3.222,0,0,0-.583,1.952l1.246,38.533a3.336,3.336,0,0,0,3.307,3.219h25.768a3.337,3.337,0,0,0,3.309-3.276l.48-37.412A6.752,6.752,0,0,0,405.694,569.127Z" transform="translate(1426.788 943.449)" fill="#e6e6e6"/>
      <path id="Path_26" data-name="Path 26" d="M402.863,596.668H380.434a2.3,2.3,0,0,0-2.276,2.653l3.389,22.031h19.462l4.117-21.956a2.3,2.3,0,0,0-2.263-2.727Z" transform="translate(1425.539 928.707)" fill="#fff"/>
      <path id="Path_27" data-name="Path 27" d="M389.844,314.244h-64.3c4.5-24.3,3.461-53.654,0-85.217h64.3C386.475,260.59,385.468,289.939,389.844,314.244Z" transform="translate(1437.722 1013.878)" fill="#e6e6e6"/>
      <circle id="Ellipse_1" data-name="Ellipse 1" cx="15.494" cy="15.494" r="15.494" transform="translate(1780.309 1267.695)" fill="#fff"/>
      <path id="Path_28" data-name="Path 28" d="M313.214,461.453h-64.3c4.5-24.3,3.461-53.654,0-85.217h64.3C309.845,407.8,308.838,437.148,313.214,461.453Z" transform="translate(1455.475 979.774)" fill="#e6e6e6"/>
      <circle id="Ellipse_2" data-name="Ellipse 2" cx="15.494" cy="15.494" r="15.494" transform="translate(1721.432 1380.801)" fill="#fff"/>
      <path id="Path_29" data-name="Path 29" d="M437.233,321.3h-64.3c4.5-24.3,3.461-53.654,0-85.217h64.3C433.864,267.648,432.857,297,437.233,321.3Z" transform="translate(1426.743 1012.243)" fill="#e6e6e6"/>
      <circle id="Ellipse_3" data-name="Ellipse 3" cx="15.494" cy="15.494" r="15.494" transform="translate(1816.72 1273.118)" fill="#fff"/>
      <path id="Path_30" data-name="Path 30" d="M437.233,316.26h-64.3c4.5-24.3,3.461-53.654,0-85.217h64.3C433.864,262.606,432.857,291.955,437.233,316.26Z" transform="translate(1426.743 1013.411)" fill="#e6e6e6"/>
      <circle id="Ellipse_4" data-name="Ellipse 4" cx="15.494" cy="15.494" r="15.494" transform="translate(1816.72 1269.245)" fill="#fff"/>
      <path id="Path_31" data-name="Path 31" d="M437.233,321.3h-64.3c4.5-24.3,3.461-53.654,0-85.217h64.3C433.864,267.648,432.857,297,437.233,321.3Z" transform="translate(1426.743 1012.243)" fill="#e6e6e6"/>
      <circle id="Ellipse_5" data-name="Ellipse 5" cx="15.494" cy="15.494" r="15.494" transform="translate(1816.72 1273.118)" fill="#fff"/>
      <rect id="Rectangle_5" data-name="Rectangle 5" width="210.718" height="23.241" transform="translate(1667.978 1323.474)" fill="#e6e6e6"/>
      <rect id="Rectangle_6" data-name="Rectangle 6" width="210.718" height="23.241" transform="translate(1667.978 1438.903)" fill="#e6e6e6"/>
    </g>
    <g id="Group_5" data-name="Group 5" transform="translate(92 1950)">
      <path id="Path_61" data-name="Path 61" d="M1006.846,686h-437a17.019,17.019,0,0,1-17-17V139a17.019,17.019,0,0,1,17-17h437a17.019,17.019,0,0,1,17,17V669a17.019,17.019,0,0,1-17,17Zm-437-562a15.017,15.017,0,0,0-15,15V669a15.017,15.017,0,0,0,15,15h437a15.017,15.017,0,0,0,15-15V139a15.017,15.017,0,0,0-15-15Z" transform="translate(2380.846 -386)" fill="#3f3d56"/>
      <path id="Path_83" data-name="Path 83" d="M0,0H469V2H0Z" transform="translate(2934.693 -222.41)" fill="#3f3d56"/>
      <circle id="Ellipse_12" data-name="Ellipse 12" cx="8" cy="8" r="8" transform="translate(2949.693 -250)" fill="#3f3d56"/>
      <circle id="Ellipse_13" data-name="Ellipse 13" cx="8" cy="8" r="8" transform="translate(2974.693 -250)" fill="#3f3d56"/>
      <circle id="Ellipse_14" data-name="Ellipse 14" cx="8" cy="8" r="8" transform="translate(2999.693 -250)" fill="#3f3d56"/>
      <path id="Path_62" data-name="Path 62" d="M939.106,243h-312a13,13,0,1,1,0-26h312a13,13,0,0,1,0,26Zm-312-24a11,11,0,0,0,0,22h312a11,11,0,1,0,0-22Z" transform="translate(2380.846 -386)" fill="#3f3d56"/>
      <path id="Path_63" data-name="Path 63" d="M743.846,426h-123a17.019,17.019,0,0,1-17-17V308a17.019,17.019,0,0,1,17-17h123a17.019,17.019,0,0,1,17,17V409a17.019,17.019,0,0,1-17,17Zm-123-133a15.017,15.017,0,0,0-15,15V409a15.017,15.017,0,0,0,15,15h123a15.017,15.017,0,0,0,15-15V308a15.017,15.017,0,0,0-15-15Z" transform="translate(2380.846 -386)" fill="#3f3d56"/>
      <rect id="Rectangle_29" data-name="Rectangle 29" width="155" height="133" rx="16" transform="translate(3197.693 -90)" fill="#f2f2f2"/>
      <path id="Path_64" data-name="Path 64" d="M743.846,614h-123a17.019,17.019,0,0,1-17-17V496a17.019,17.019,0,0,1,17-17h123a17.019,17.019,0,0,1,17,17V597a17.019,17.019,0,0,1-17,17Zm-123-133a15.017,15.017,0,0,0-15,15V597a15.017,15.017,0,0,0,15,15h123a15.017,15.017,0,0,0,15-15V496a15.017,15.017,0,0,0-15-15Z" transform="translate(2380.846 -386)" fill="#3f3d56"/>
      <rect id="Rectangle_30" data-name="Rectangle 30" width="155" height="133" rx="16" transform="translate(3197.693 98)" fill="#f2f2f2"/>
      <path id="Path_65" data-name="Path 65" d="M651.738,401.573h-.067l-13.99-.518a1.808,1.808,0,0,1-1.743-1.613c-.963-8.591-4.926-52.371,11.675-70.567a23.747,23.747,0,0,1,18.788-7.892.786.786,0,0,0,.721-.376l3.387-5.322a1.836,1.836,0,0,1,1.753-.831c2.715.328,16.556,1.877,22.377.192a1.822,1.822,0,0,1,1.923.592l4.448,5.436a.779.779,0,0,0,.649.3c2.262-.045,10.194.393,17.135,8.157,7.517,8.407,15.274,27.376,9.543,70a1.833,1.833,0,0,1-1.809,1.584H715.51a1.832,1.832,0,0,1-1.8-1.561l-3.6-24.836a.822.822,0,0,0-1.635.1l-.248,11.661a1.826,1.826,0,0,1-1.083,1.627c-3.928,1.727-24.683,9.827-47.622-.318a1.838,1.838,0,0,1-1.083-1.594l-.451-10.595a.822.822,0,0,0-1.638-.057l-2.8,24.817A1.831,1.831,0,0,1,651.738,401.573Z" transform="translate(2380.846 -386)"/>
      <path id="Path_66" data-name="Path 66" d="M709.612,584.539h-.01l-54.821-.347a1.637,1.637,0,0,1-1.613-1.444l-5.515-46.873a1.262,1.262,0,0,0-1.218-1.122c-4.352-.142-14.707-1.134-16.852-7.263-1.911-5.459,3.316-13.51,15.535-23.931a1.637,1.637,0,0,1,2.636.786l6.343,21.885a1.28,1.28,0,0,0,1.213.918l51.979.349a1.265,1.265,0,0,0,1.222-.891l7.058-22.458a1.634,1.634,0,0,1,2.551-.81c4.816,3.678,20.332,16.307,17.778,24.384-1.338,4.23-7.37,6.588-17.93,7.008a1.266,1.266,0,0,0-1.214,1.122l-5.517,47.242a1.633,1.633,0,0,1-1.624,1.446Z" transform="translate(2380.846 -386)"/>
      <path id="Path_67" data-name="Path 67" d="M949.846,387.153a115.565,115.565,0,0,0-47.505,21.039,8.811,8.811,0,0,0-3.788-4.5,13.3,13.3,0,0,0-3.844-1.615c-1.236-.315-2.423.436-3.513,1.518a19.891,19.891,0,0,0-3.125,4.628c-18.826-12.922-47.384-21.168-47.384-21.168v-2.584a14.266,14.266,0,0,1,.186-1.817c.1-.695.218-1.308.371-2.059,2.423-12.325,12-40.487,12-40.487h10.83l21,4.361,23.623-1.446,23.793-4.951,3.085-.646c5.145,4.038,10.984,32.305,13.278,44.339.291,1.526.517,2.786.686,3.715C949.741,386.531,949.846,387.153,949.846,387.153Z" transform="translate(2380.846 -386)" fill="#fff"/>
      <path id="Path_68" data-name="Path 68" d="M885.223,511.219h0s-5.031,1.258-12.832,22.389-10.566,48.434-10.566,48.434-4.387,7.429,14.339,7.926c0,0-1.506,4.906,9.059,4.153s9.045-.746,9.045-.746,6.793-4.277,9.813-3.524,4.906,1.009,8.175,3.773,13.717,1.638,13.841-.5a19.733,19.733,0,0,0,0-3.151s15.976,1.009,12.957-10.566-5.535-30.571-5.535-30.571-8.175-37.108-17.49-37.612S885.223,511.219,885.223,511.219Z" transform="translate(2380.846 -386)" fill="#fff"/>
    </g>
  </g>
</svg>
