<svg xmlns="http://www.w3.org/2000/svg" width="59.002" height="48.465" viewBox="0 0 59.002 48.465">
  <g id="Group_16" data-name="Group 16" transform="translate(0)">
    <g id="Group_13" data-name="Group 13">
      <path id="Path_86" data-name="Path 86" d="M3.161,6.322A3.162,3.162,0,0,1,0,3.161H0A3.161,3.161,0,0,1,3.161,0h52.68A3.161,3.161,0,0,1,59,3.161h0a3.162,3.162,0,0,1-3.161,3.161H3.161Z" fill="#f7f7f7"/>
    </g>
    <g id="Group_14" data-name="Group 14">
      <path id="Path_87" data-name="Path 87" d="M3.162,27.394A3.161,3.161,0,0,1,0,24.232H0a3.161,3.161,0,0,1,3.161-3.161H55.84A3.161,3.161,0,0,1,59,24.232h0a3.16,3.16,0,0,1-3.16,3.161H3.162Z" fill="#f7f7f7"/>
    </g>
    <g id="Group_15" data-name="Group 15">
      <path id="Path_88" data-name="Path 88" d="M3.162,48.465A3.162,3.162,0,0,1,0,45.3H0a3.161,3.161,0,0,1,3.162-3.16H55.84A3.161,3.161,0,0,1,59,45.3h0a3.162,3.162,0,0,1-3.162,3.162H3.162Z" fill="#f7f7f7"/>
    </g>
  </g>
</svg>
